<svg width="177" height="22" viewBox="0 0 177 22" fill="none" xmlns="http://www.w3.org/2000/svg">
    <path d="M2.14288 16V6.2H5.81088C6.64154 6.2 7.35554 6.33533 7.95288 6.606C8.55021 6.86733 9.00754 7.25 9.32488 7.754C9.65154 8.24867 9.81488 8.85067 9.81488 9.56C9.81488 10.2507 9.65154 10.848 9.32488 11.352C9.00754 11.8467 8.55021 12.2293 7.95288 12.5C7.35554 12.7707 6.64154 12.906 5.81088 12.906H2.71688L3.17888 12.416V16H2.14288ZM3.17888 12.5L2.71688 11.996H5.78288C6.76288 11.996 7.50488 11.786 8.00888 11.366C8.52221 10.9367 8.77887 10.3347 8.77887 9.56C8.77887 8.776 8.52221 8.16933 8.00888 7.74C7.50488 7.31067 6.76288 7.096 5.78288 7.096H2.71688L3.17888 6.606V12.5ZM14.8 16.07C14.0906 16.07 13.4513 15.9113 12.882 15.594C12.322 15.2673 11.8786 14.824 11.552 14.264C11.2253 13.6947 11.062 13.046 11.062 12.318C11.062 11.5807 11.2253 10.932 11.552 10.372C11.8786 9.812 12.322 9.37333 12.882 9.056C13.442 8.73867 14.0813 8.58 14.8 8.58C15.528 8.58 16.172 8.73867 16.732 9.056C17.3013 9.37333 17.7446 9.812 18.062 10.372C18.3886 10.932 18.552 11.5807 18.552 12.318C18.552 13.046 18.3886 13.6947 18.062 14.264C17.7446 14.824 17.3013 15.2673 16.732 15.594C16.1626 15.9113 15.5186 16.07 14.8 16.07ZM14.8 15.188C15.332 15.188 15.8033 15.0713 16.214 14.838C16.6246 14.5953 16.9466 14.2593 17.18 13.83C17.4226 13.3913 17.544 12.8873 17.544 12.318C17.544 11.7393 17.4226 11.2353 17.18 10.806C16.9466 10.3767 16.6246 10.0453 16.214 9.812C15.8033 9.56933 15.3366 9.448 14.814 9.448C14.2913 9.448 13.8246 9.56933 13.414 9.812C13.0033 10.0453 12.6766 10.3767 12.434 10.806C12.1913 11.2353 12.07 11.7393 12.07 12.318C12.07 12.8873 12.1913 13.3913 12.434 13.83C12.6766 14.2593 13.0033 14.5953 13.414 14.838C13.8246 15.0713 14.2866 15.188 14.8 15.188ZM21.8742 16L19.1022 8.65H20.0542L22.5742 15.468H22.1402L24.7302 8.65H25.5842L28.1462 15.468H27.7122L30.2742 8.65H31.1842L28.3982 16H27.4602L24.9962 9.588H25.2902L22.8122 16H21.8742ZM35.5978 16.07C34.8325 16.07 34.1605 15.9113 33.5818 15.594C33.0032 15.2673 32.5505 14.824 32.2238 14.264C31.8972 13.6947 31.7338 13.046 31.7338 12.318C31.7338 11.59 31.8878 10.946 32.1958 10.386C32.5132 9.826 32.9425 9.38733 33.4838 9.07C34.0345 8.74333 34.6505 8.58 35.3318 8.58C36.0225 8.58 36.6338 8.73867 37.1658 9.056C37.7072 9.364 38.1318 9.80267 38.4398 10.372C38.7478 10.932 38.9018 11.5807 38.9018 12.318C38.9018 12.3647 38.8972 12.416 38.8878 12.472C38.8878 12.5187 38.8878 12.57 38.8878 12.626H32.4898V11.884H38.3558L37.9638 12.178C37.9638 11.646 37.8472 11.1747 37.6138 10.764C37.3898 10.344 37.0818 10.0173 36.6898 9.784C36.2978 9.55067 35.8452 9.434 35.3318 9.434C34.8278 9.434 34.3752 9.55067 33.9738 9.784C33.5725 10.0173 33.2598 10.344 33.0358 10.764C32.8118 11.184 32.6998 11.6647 32.6998 12.206V12.36C32.6998 12.92 32.8212 13.4147 33.0638 13.844C33.3158 14.264 33.6612 14.5953 34.0998 14.838C34.5478 15.0713 35.0565 15.188 35.6258 15.188C36.0738 15.188 36.4892 15.1087 36.8718 14.95C37.2638 14.7913 37.5998 14.5487 37.8798 14.222L38.4398 14.866C38.1132 15.258 37.7025 15.5567 37.2078 15.762C36.7225 15.9673 36.1858 16.07 35.5978 16.07ZM40.9251 16V8.65H41.8771V10.652L41.7791 10.302C41.9844 9.742 42.3297 9.31733 42.8151 9.028C43.3004 8.72933 43.9024 8.58 44.6211 8.58V9.546C44.5837 9.546 44.5464 9.546 44.5091 9.546C44.4717 9.53667 44.4344 9.532 44.3971 9.532C43.6224 9.532 43.0157 9.77 42.5771 10.246C42.1384 10.7127 41.9191 11.38 41.9191 12.248V16H40.9251ZM49.4885 16.07C48.7231 16.07 48.0511 15.9113 47.4725 15.594C46.8938 15.2673 46.4411 14.824 46.1145 14.264C45.7878 13.6947 45.6245 13.046 45.6245 12.318C45.6245 11.59 45.7785 10.946 46.0865 10.386C46.4038 9.826 46.8331 9.38733 47.3745 9.07C47.9251 8.74333 48.5411 8.58 49.2225 8.58C49.9131 8.58 50.5245 8.73867 51.0565 9.056C51.5978 9.364 52.0225 9.80267 52.3305 10.372C52.6385 10.932 52.7925 11.5807 52.7925 12.318C52.7925 12.3647 52.7878 12.416 52.7785 12.472C52.7785 12.5187 52.7785 12.57 52.7785 12.626H46.3805V11.884H52.2465L51.8545 12.178C51.8545 11.646 51.7378 11.1747 51.5045 10.764C51.2805 10.344 50.9725 10.0173 50.5805 9.784C50.1885 9.55067 49.7358 9.434 49.2225 9.434C48.7185 9.434 48.2658 9.55067 47.8645 9.784C47.4631 10.0173 47.1505 10.344 46.9265 10.764C46.7025 11.184 46.5905 11.6647 46.5905 12.206V12.36C46.5905 12.92 46.7118 13.4147 46.9545 13.844C47.2065 14.264 47.5518 14.5953 47.9905 14.838C48.4385 15.0713 48.9471 15.188 49.5165 15.188C49.9645 15.188 50.3798 15.1087 50.7625 14.95C51.1545 14.7913 51.4905 14.5487 51.7705 14.222L52.3305 14.866C52.0038 15.258 51.5931 15.5567 51.0985 15.762C50.6131 15.9673 50.0765 16.07 49.4885 16.07ZM57.7417 16.07C57.0417 16.07 56.4117 15.9113 55.8517 15.594C55.301 15.2767 54.867 14.838 54.5497 14.278C54.2324 13.7087 54.0737 13.0553 54.0737 12.318C54.0737 11.5713 54.2324 10.918 54.5497 10.358C54.867 9.798 55.301 9.364 55.8517 9.056C56.4117 8.73867 57.0417 8.58 57.7417 8.58C58.3857 8.58 58.9597 8.72467 59.4637 9.014C59.977 9.30333 60.383 9.728 60.6817 10.288C60.9897 10.8387 61.1437 11.5153 61.1437 12.318C61.1437 13.1113 60.9944 13.788 60.6957 14.348C60.397 14.908 59.991 15.3373 59.4777 15.636C58.9737 15.9253 58.395 16.07 57.7417 16.07ZM57.8117 15.188C58.3344 15.188 58.801 15.0713 59.2117 14.838C59.6317 14.5953 59.9584 14.2593 60.1917 13.83C60.4344 13.3913 60.5557 12.8873 60.5557 12.318C60.5557 11.7393 60.4344 11.2353 60.1917 10.806C59.9584 10.3767 59.6317 10.0453 59.2117 9.812C58.801 9.56933 58.3344 9.448 57.8117 9.448C57.2984 9.448 56.8364 9.56933 56.4257 9.812C56.015 10.0453 55.6884 10.3767 55.4457 10.806C55.203 11.2353 55.0817 11.7393 55.0817 12.318C55.0817 12.8873 55.203 13.3913 55.4457 13.83C55.6884 14.2593 56.015 14.5953 56.4257 14.838C56.8364 15.0713 57.2984 15.188 57.8117 15.188ZM60.5837 16V13.788L60.6817 12.304L60.5417 10.82V5.612H61.5357V16H60.5837ZM71.762 16.07C71.118 16.07 70.5394 15.9253 70.026 15.636C69.5127 15.3373 69.1067 14.908 68.808 14.348C68.5094 13.788 68.36 13.1113 68.36 12.318C68.36 11.5153 68.5094 10.8387 68.808 10.288C69.116 9.728 69.5267 9.30333 70.04 9.014C70.5534 8.72467 71.1274 8.58 71.762 8.58C72.462 8.58 73.0874 8.73867 73.638 9.056C74.198 9.364 74.6367 9.798 74.954 10.358C75.2714 10.918 75.43 11.5713 75.43 12.318C75.43 13.0553 75.2714 13.7087 74.954 14.278C74.6367 14.838 74.198 15.2767 73.638 15.594C73.0874 15.9113 72.462 16.07 71.762 16.07ZM67.968 16V5.612H68.962V10.82L68.822 12.304L68.92 13.788V16H67.968ZM71.692 15.188C72.2147 15.188 72.6814 15.0713 73.092 14.838C73.5027 14.5953 73.8294 14.2593 74.072 13.83C74.3147 13.3913 74.436 12.8873 74.436 12.318C74.436 11.7393 74.3147 11.2353 74.072 10.806C73.8294 10.3767 73.5027 10.0453 73.092 9.812C72.6814 9.56933 72.2147 9.448 71.692 9.448C71.1694 9.448 70.698 9.56933 70.278 9.812C69.8674 10.0453 69.5407 10.3767 69.298 10.806C69.0647 11.2353 68.948 11.7393 68.948 12.318C68.948 12.8873 69.0647 13.3913 69.298 13.83C69.5407 14.2593 69.8674 14.5953 70.278 14.838C70.698 15.0713 71.1694 15.188 71.692 15.188ZM77.3072 18.786C76.9619 18.786 76.6306 18.73 76.3132 18.618C76.0052 18.506 75.7392 18.338 75.5152 18.114L75.9772 17.372C76.1639 17.5493 76.3646 17.6847 76.5792 17.778C76.8032 17.8807 77.0506 17.932 77.3212 17.932C77.6479 17.932 77.9279 17.8387 78.1612 17.652C78.4039 17.4747 78.6326 17.1573 78.8472 16.7L79.3232 15.622L79.4352 15.468L82.4592 8.65H83.4392L79.7572 16.882C79.5519 17.358 79.3232 17.736 79.0712 18.016C78.8286 18.296 78.5626 18.492 78.2732 18.604C77.9839 18.7253 77.6619 18.786 77.3072 18.786ZM79.2672 16.21L75.8792 8.65H76.9152L79.9112 15.398L79.2672 16.21Z" fill="white"/>
    <g clip-path="url(#clip0_4605_4488)">
        <path d="M135.84 8.93734L135.832 3.99559L133.362 8.17009H133.151L130.681 4.01209V8.93734H130.26V3.16234H130.622L133.261 7.62559L135.899 3.16234H136.253L136.262 8.93734H135.84ZM140.966 8.97859C140.219 8.97859 139.637 8.76684 139.221 8.34334C138.811 7.91984 138.606 7.30109 138.606 6.48709V3.16234H139.036V6.47059C139.036 7.18009 139.201 7.71084 139.533 8.06284C139.865 8.41484 140.345 8.59084 140.974 8.59084C141.598 8.59084 142.076 8.41484 142.408 8.06284C142.739 7.71084 142.905 7.18009 142.905 6.47059V3.16234H143.335V6.48709C143.335 7.30109 143.127 7.91984 142.711 8.34334C142.295 8.76684 141.713 8.97859 140.966 8.97859ZM148.182 8.97859C147.603 8.97859 147.08 8.85209 146.614 8.59909C146.147 8.34059 145.779 7.98859 145.509 7.54309C145.245 7.09759 145.113 6.59984 145.113 6.04984C145.113 5.49984 145.245 5.00209 145.509 4.55659C145.779 4.11109 146.147 3.76184 146.614 3.50884C147.08 3.25034 147.603 3.12109 148.182 3.12109C148.76 3.12109 149.283 3.24759 149.75 3.50059C150.216 3.75359 150.581 4.10284 150.845 4.54834C151.115 4.99384 151.25 5.49434 151.25 6.04984C151.25 6.60534 151.115 7.10584 150.845 7.55134C150.581 7.99684 150.216 8.34609 149.75 8.59909C149.283 8.85209 148.76 8.97859 148.182 8.97859ZM148.182 8.59084C148.676 8.59084 149.123 8.48084 149.522 8.26084C149.921 8.04084 150.236 7.73834 150.466 7.35334C150.697 6.96284 150.812 6.52834 150.812 6.04984C150.812 5.57134 150.697 5.13959 150.466 4.75459C150.236 4.36409 149.921 4.05884 149.522 3.83884C149.123 3.61884 148.676 3.50884 148.182 3.50884C147.687 3.50884 147.237 3.61884 146.833 3.83884C146.434 4.05884 146.119 4.36409 145.889 4.75459C145.658 5.13959 145.543 5.57134 145.543 6.04984C145.543 6.52834 145.658 6.96284 145.889 7.35334C146.119 7.73834 146.434 8.04084 146.833 8.26084C147.237 8.48084 147.687 8.59084 148.182 8.59084ZM157.883 3.16234V8.93734H157.529L153.508 3.92134V8.93734H153.078V3.16234H153.441L157.453 8.17834V3.16234H157.883ZM135.065 13.4748V19.2498H134.711L130.69 14.2338V19.2498H130.26V13.4748H130.622L134.635 18.4908V13.4748H135.065ZM141.534 18.8703V19.2498H137.463V13.4748H141.408V13.8543H137.892V16.1313H141.037V16.5026H137.892V18.8703H141.534ZM144.568 13.8543H142.444V13.4748H147.123V13.8543H144.998V19.2498H144.568V13.8543ZM156.392 13.4748L154.394 19.2498H153.938L152.109 14.0688L150.272 19.2498H149.816L147.81 13.4748H148.265L150.061 18.6723L151.907 13.4748H152.32L154.158 18.6806L155.97 13.4748H156.392ZM160.414 19.2911C159.835 19.2911 159.312 19.1646 158.846 18.9116C158.38 18.6531 158.011 18.3011 157.742 17.8556C157.478 17.4101 157.346 16.9123 157.346 16.3623C157.346 15.8123 157.478 15.3146 157.742 14.8691C158.011 14.4236 158.38 14.0743 158.846 13.8213C159.312 13.5628 159.835 13.4336 160.414 13.4336C160.993 13.4336 161.515 13.5601 161.982 13.8131C162.448 14.0661 162.813 14.4153 163.077 14.8608C163.347 15.3063 163.482 15.8068 163.482 16.3623C163.482 16.9178 163.347 17.4183 163.077 17.8638C162.813 18.3093 162.448 18.6586 161.982 18.9116C161.515 19.1646 160.993 19.2911 160.414 19.2911ZM160.414 18.9033C160.909 18.9033 161.355 18.7933 161.754 18.5733C162.153 18.3533 162.468 18.0508 162.698 17.6658C162.929 17.2753 163.044 16.8408 163.044 16.3623C163.044 15.8838 162.929 15.4521 162.698 15.0671C162.468 14.6766 162.153 14.3713 161.754 14.1513C161.355 13.9313 160.909 13.8213 160.414 13.8213C159.919 13.8213 159.47 13.9313 159.065 14.1513C158.666 14.3713 158.351 14.6766 158.121 15.0671C157.891 15.4521 157.775 15.8838 157.775 16.3623C157.775 16.8408 157.891 17.2753 158.121 17.6658C158.351 18.0508 158.666 18.3533 159.065 18.5733C159.47 18.7933 159.919 18.9033 160.414 18.9033ZM169.408 19.2498L168 17.3193C167.792 17.3468 167.601 17.3606 167.427 17.3606H165.741V19.2498H165.311V13.4748H167.427C168.168 13.4748 168.75 13.6481 169.172 13.9946C169.593 14.3356 169.804 14.8113 169.804 15.4218C169.804 15.8783 169.683 16.2633 169.441 16.5768C169.205 16.8848 168.865 17.1021 168.421 17.2286L169.896 19.2498H169.408ZM167.427 16.9893C168.056 16.9893 168.536 16.8546 168.868 16.5851C169.2 16.3101 169.365 15.9223 169.365 15.4218C169.365 14.9213 169.2 14.5363 168.868 14.2668C168.536 13.9918 168.056 13.8543 167.427 13.8543H165.741V16.9893H167.427ZM173.469 16.4036L172.145 17.7318V19.2498H171.715V13.4748H172.145V17.1873L175.829 13.4748H176.352L173.755 16.0983L176.529 19.2498H176.006L173.469 16.4036Z" fill="white"/>
        <path d="M92.4143 14.2504C92.6431 14.2504 92.8286 14.0689 92.8286 13.8449C92.8286 13.621 92.6431 13.4395 92.4143 13.4395C92.1855 13.4395 92 13.621 92 13.8449C92 14.0689 92.1855 14.2504 92.4143 14.2504Z" fill="white"/>
        <path d="M98.1741 13.7597C98.4029 13.7597 98.5884 13.5781 98.5884 13.3542C98.5884 13.1303 98.4029 12.9487 98.1741 12.9487C97.9453 12.9487 97.7598 13.1303 97.7598 13.3542C97.7598 13.5781 97.9453 13.7597 98.1741 13.7597Z" fill="white"/>
        <path d="M99.8382 16.0814C100.067 16.0814 100.252 15.8999 100.252 15.6759C100.252 15.452 100.067 15.2705 99.8382 15.2705C99.6094 15.2705 99.4238 15.452 99.4238 15.6759C99.4238 15.8999 99.6094 16.0814 99.8382 16.0814Z" fill="white"/>
        <path d="M104.75 14.3812C104.979 14.3812 105.165 14.1997 105.165 13.9758C105.165 13.7519 104.979 13.5703 104.75 13.5703C104.521 13.5703 104.336 13.7519 104.336 13.9758C104.336 14.1997 104.521 14.3812 104.75 14.3812Z" fill="white"/>
        <path d="M92.7483 1.88369C92.9771 1.88369 93.1626 1.70216 93.1626 1.47822C93.1626 1.25429 92.9771 1.07275 92.7483 1.07275C92.5195 1.07275 92.334 1.25429 92.334 1.47822C92.334 1.70216 92.5195 1.88369 92.7483 1.88369Z" fill="white"/>
        <path d="M93.1835 7.01055C93.5378 7.01055 93.825 6.72944 93.825 6.38271C93.825 6.03597 93.5378 5.75488 93.1835 5.75488C92.8292 5.75488 92.542 6.03597 92.542 6.38271C92.542 6.72944 92.8292 7.01055 93.1835 7.01055Z" fill="white"/>
        <path d="M103.607 12.8965C103.902 12.8965 104.141 12.6622 104.141 12.3733C104.141 12.0843 103.902 11.8501 103.607 11.8501C103.312 11.8501 103.072 12.0843 103.072 12.3733C103.072 12.6622 103.312 12.8965 103.607 12.8965Z" fill="white"/>
        <path d="M92.8285 19.2729C93.1238 19.2729 93.3631 19.0386 93.3631 18.7497C93.3631 18.4608 93.1238 18.2266 92.8285 18.2266C92.5333 18.2266 92.2939 18.4608 92.2939 18.7497C92.2939 19.0386 92.5333 19.2729 92.8285 19.2729Z" fill="white"/>
        <path d="M96.9513 16.4933C97.2761 16.4933 97.5394 16.2356 97.5394 15.9178C97.5394 15.6 97.2761 15.3423 96.9513 15.3423C96.6266 15.3423 96.3633 15.6 96.3633 15.9178C96.3633 16.2356 96.6266 16.4933 96.9513 16.4933Z" fill="white"/>
        <path d="M101.496 18.4557C101.754 18.4557 101.964 18.2506 101.964 17.9978C101.964 17.745 101.754 17.54 101.496 17.54C101.238 17.54 101.028 17.745 101.028 17.9978C101.028 18.2506 101.238 18.4557 101.496 18.4557Z" fill="white"/>
        <path d="M94.5063 21.7713C94.8938 21.7713 95.208 21.4639 95.208 21.0846C95.208 20.7054 94.8938 20.3979 94.5063 20.3979C94.1188 20.3979 93.8047 20.7054 93.8047 21.0846C93.8047 21.4639 94.1188 21.7713 94.5063 21.7713Z" fill="white"/>
        <path d="M97.2985 4.77429C97.8927 4.77429 98.3744 4.30288 98.3744 3.72137C98.3744 3.13986 97.8927 2.66846 97.2985 2.66846C96.7043 2.66846 96.2227 3.13986 96.2227 3.72137C96.2227 4.30288 96.7043 4.77429 97.2985 4.77429Z" fill="white"/>
        <path d="M95.6282 2.30203C96.2778 2.30203 96.8043 1.7867 96.8043 1.15101C96.8043 0.515325 96.2778 0 95.6282 0C94.9787 0 94.4521 0.515325 94.4521 1.15101C94.4521 1.7867 94.9787 2.30203 95.6282 2.30203Z" fill="white"/>
        <path d="M96.0627 7.36367C96.62 7.36367 97.0718 6.9216 97.0718 6.37618C97.0718 5.8308 96.62 5.38867 96.0627 5.38867C95.5055 5.38867 95.0537 5.8308 95.0537 6.37618C95.0537 6.9216 95.5055 7.36367 96.0627 7.36367Z" fill="white"/>
        <path d="M98.9629 6.92587C99.5497 6.92587 100.025 6.4603 100.025 5.88602C100.025 5.31174 99.5497 4.84619 98.9629 4.84619C98.3761 4.84619 97.9004 5.31174 97.9004 5.88602C97.9004 6.4603 98.3761 6.92587 98.9629 6.92587Z" fill="white"/>
        <path d="M94.8536 9.68538C95.4146 9.68538 95.8693 9.24036 95.8693 8.69132C95.8693 8.14235 95.4146 7.69727 94.8536 7.69727C94.2926 7.69727 93.8379 8.14235 93.8379 8.69132C93.8379 9.24036 94.2926 9.68538 94.8536 9.68538Z" fill="white"/>
        <path d="M97.7336 9.40435C98.2687 9.40435 98.7025 8.97982 98.7025 8.45608C98.7025 7.93234 98.2687 7.50781 97.7336 7.50781C97.1985 7.50781 96.7646 7.93234 96.7646 8.45608C96.7646 8.97982 97.1985 9.40435 97.7336 9.40435Z" fill="white"/>
        <path d="M100.634 9.03131C101.099 9.03131 101.476 8.66239 101.476 8.20734C101.476 7.75221 101.099 7.3833 100.634 7.3833C100.169 7.3833 99.792 7.75221 99.792 8.20734C99.792 8.66239 100.169 9.03131 100.634 9.03131Z" fill="white"/>
        <path d="M99.4113 11.608C99.8763 11.608 100.253 11.2391 100.253 10.784C100.253 10.3289 99.8763 9.95996 99.4113 9.95996C98.9463 9.95996 98.5693 10.3289 98.5693 10.784C98.5693 11.2391 98.9463 11.608 99.4113 11.608Z" fill="white"/>
        <path d="M96.5041 11.8566C96.9691 11.8566 97.3461 11.4877 97.3461 11.0325C97.3461 10.5775 96.9691 10.2085 96.5041 10.2085C96.0391 10.2085 95.6621 10.5775 95.6621 11.0325C95.6621 11.4877 96.0391 11.8566 96.5041 11.8566Z" fill="white"/>
        <path d="M95.2875 14.5314C95.8189 14.5314 96.2497 14.1098 96.2497 13.5897C96.2497 13.0696 95.8189 12.6479 95.2875 12.6479C94.756 12.6479 94.3252 13.0696 94.3252 13.5897C94.3252 14.1098 94.756 14.5314 95.2875 14.5314Z" fill="white"/>
        <path d="M94.0585 16.997C94.5309 16.997 94.9138 16.6222 94.9138 16.1599C94.9138 15.6976 94.5309 15.3228 94.0585 15.3228C93.5861 15.3228 93.2031 15.6976 93.2031 16.1599C93.2031 16.6222 93.5861 16.997 94.0585 16.997Z" fill="white"/>
        <path d="M102.725 16.3494C103.253 16.3494 103.681 15.9307 103.681 15.4142C103.681 14.8977 103.253 14.479 102.725 14.479C102.197 14.479 101.77 14.8977 101.77 15.4142C101.77 15.9307 102.197 16.3494 102.725 16.3494Z" fill="white"/>
        <path d="M101.055 14.0475C101.586 14.0475 102.017 13.626 102.017 13.1058C102.017 12.5857 101.586 12.1641 101.055 12.1641C100.524 12.1641 100.093 12.5857 100.093 13.1058C100.093 13.626 100.524 14.0475 101.055 14.0475Z" fill="white"/>
        <path d="M95.7152 19.443C96.2466 19.443 96.6774 19.0214 96.6774 18.5013C96.6774 17.9812 96.2466 17.5596 95.7152 17.5596C95.1837 17.5596 94.7529 17.9812 94.7529 18.5013C94.7529 19.0214 95.1837 19.443 95.7152 19.443Z" fill="white"/>
        <path d="M93.6037 11.9743C93.9986 11.9743 94.3187 11.661 94.3187 11.2744C94.3187 10.888 93.9986 10.5747 93.6037 10.5747C93.2088 10.5747 92.8887 10.888 92.8887 11.2744C92.8887 11.661 93.2088 11.9743 93.6037 11.9743Z" fill="white"/>
        <path d="M102.297 11.2286C102.692 11.2286 103.012 10.9154 103.012 10.5289C103.012 10.1424 102.692 9.8291 102.297 9.8291C101.902 9.8291 101.582 10.1424 101.582 10.5289C101.582 10.9154 101.902 11.2286 102.297 11.2286Z" fill="white"/>
        <path d="M94.4121 4.83943C94.9989 4.83943 95.4746 4.37389 95.4746 3.7996C95.4746 3.22531 94.9989 2.75977 94.4121 2.75977C93.8253 2.75977 93.3496 3.22531 93.3496 3.7996C93.3496 4.37389 93.8253 4.83943 94.4121 4.83943Z" fill="white"/>
        <path d="M119.685 14.2504C119.914 14.2504 120.099 14.0689 120.099 13.8449C120.099 13.621 119.914 13.4395 119.685 13.4395C119.456 13.4395 119.271 13.621 119.271 13.8449C119.271 14.0689 119.456 14.2504 119.685 14.2504Z" fill="white"/>
        <path d="M113.924 13.7597C114.153 13.7597 114.338 13.5781 114.338 13.3542C114.338 13.1303 114.153 12.9487 113.924 12.9487C113.695 12.9487 113.51 13.1303 113.51 13.3542C113.51 13.5781 113.695 13.7597 113.924 13.7597Z" fill="white"/>
        <path d="M112.261 16.0814C112.49 16.0814 112.675 15.8999 112.675 15.6759C112.675 15.452 112.49 15.2705 112.261 15.2705C112.032 15.2705 111.847 15.452 111.847 15.6759C111.847 15.8999 112.032 16.0814 112.261 16.0814Z" fill="white"/>
        <path d="M107.349 14.3812C107.578 14.3812 107.763 14.1997 107.763 13.9758C107.763 13.7519 107.578 13.5703 107.349 13.5703C107.12 13.5703 106.935 13.7519 106.935 13.9758C106.935 14.1997 107.12 14.3812 107.349 14.3812Z" fill="white"/>
        <path d="M119.351 1.88369C119.58 1.88369 119.765 1.70216 119.765 1.47822C119.765 1.25429 119.58 1.07275 119.351 1.07275C119.122 1.07275 118.937 1.25429 118.937 1.47822C118.937 1.70216 119.122 1.88369 119.351 1.88369Z" fill="white"/>
        <path d="M118.916 7.01055C119.27 7.01055 119.557 6.72944 119.557 6.38271C119.557 6.03597 119.27 5.75488 118.916 5.75488C118.562 5.75488 118.274 6.03597 118.274 6.38271C118.274 6.72944 118.562 7.01055 118.916 7.01055Z" fill="white"/>
        <path d="M108.492 12.8965C108.787 12.8965 109.026 12.6622 109.026 12.3733C109.026 12.0843 108.787 11.8501 108.492 11.8501C108.196 11.8501 107.957 12.0843 107.957 12.3733C107.957 12.6622 108.196 12.8965 108.492 12.8965Z" fill="white"/>
        <path d="M119.271 19.2729C119.566 19.2729 119.806 19.0386 119.806 18.7497C119.806 18.4608 119.566 18.2266 119.271 18.2266C118.976 18.2266 118.736 18.4608 118.736 18.7497C118.736 19.0386 118.976 19.2729 119.271 19.2729Z" fill="white"/>
        <path d="M115.148 16.4933C115.472 16.4933 115.736 16.2356 115.736 15.9178C115.736 15.6 115.472 15.3423 115.148 15.3423C114.823 15.3423 114.56 15.6 114.56 15.9178C114.56 16.2356 114.823 16.4933 115.148 16.4933Z" fill="white"/>
        <path d="M110.604 18.4557C110.862 18.4557 111.071 18.2506 111.071 17.9978C111.071 17.745 110.862 17.54 110.604 17.54C110.345 17.54 110.136 17.745 110.136 17.9978C110.136 18.2506 110.345 18.4557 110.604 18.4557Z" fill="white"/>
        <path d="M117.593 21.7713C117.981 21.7713 118.295 21.4639 118.295 21.0846C118.295 20.7054 117.981 20.3979 117.593 20.3979C117.206 20.3979 116.892 20.7054 116.892 21.0846C116.892 21.4639 117.206 21.7713 117.593 21.7713Z" fill="white"/>
        <path d="M114.8 4.77429C115.395 4.77429 115.876 4.30288 115.876 3.72137C115.876 3.13986 115.395 2.66846 114.8 2.66846C114.206 2.66846 113.725 3.13986 113.725 3.72137C113.725 4.30288 114.206 4.77429 114.8 4.77429Z" fill="white"/>
        <path d="M116.471 2.30203C117.121 2.30203 117.647 1.7867 117.647 1.15101C117.647 0.515325 117.121 0 116.471 0C115.821 0 115.295 0.515325 115.295 1.15101C115.295 1.7867 115.821 2.30203 116.471 2.30203Z" fill="white"/>
        <path d="M116.036 7.36367C116.594 7.36367 117.045 6.9216 117.045 6.37618C117.045 5.8308 116.594 5.38867 116.036 5.38867C115.479 5.38867 115.027 5.8308 115.027 6.37618C115.027 6.9216 115.479 7.36367 116.036 7.36367Z" fill="white"/>
        <path d="M113.136 6.92587C113.723 6.92587 114.198 6.4603 114.198 5.88602C114.198 5.31174 113.723 4.84619 113.136 4.84619C112.549 4.84619 112.073 5.31174 112.073 5.88602C112.073 6.4603 112.549 6.92587 113.136 6.92587Z" fill="white"/>
        <path d="M117.246 9.68538C117.807 9.68538 118.262 9.24036 118.262 8.69132C118.262 8.14235 117.807 7.69727 117.246 7.69727C116.685 7.69727 116.23 8.14235 116.23 8.69132C116.23 9.24036 116.685 9.68538 117.246 9.68538Z" fill="white"/>
        <path d="M114.365 9.40435C114.901 9.40435 115.334 8.97982 115.334 8.45608C115.334 7.93234 114.901 7.50781 114.365 7.50781C113.83 7.50781 113.396 7.93234 113.396 8.45608C113.396 8.97982 113.83 9.40435 114.365 9.40435Z" fill="white"/>
        <path d="M111.465 9.03131C111.93 9.03131 112.307 8.66239 112.307 8.20734C112.307 7.75221 111.93 7.3833 111.465 7.3833C111 7.3833 110.623 7.75221 110.623 8.20734C110.623 8.66239 111 9.03131 111.465 9.03131Z" fill="white"/>
        <path d="M112.689 11.608C113.154 11.608 113.531 11.2391 113.531 10.784C113.531 10.3289 113.154 9.95996 112.689 9.95996C112.224 9.95996 111.847 10.3289 111.847 10.784C111.847 11.2391 112.224 11.608 112.689 11.608Z" fill="white"/>
        <path d="M115.595 11.8566C116.06 11.8566 116.437 11.4877 116.437 11.0325C116.437 10.5775 116.06 10.2085 115.595 10.2085C115.13 10.2085 114.753 10.5775 114.753 11.0325C114.753 11.4877 115.13 11.8566 115.595 11.8566Z" fill="white"/>
        <path d="M116.811 14.5314C117.342 14.5314 117.773 14.1098 117.773 13.5897C117.773 13.0696 117.342 12.6479 116.811 12.6479C116.279 12.6479 115.849 13.0696 115.849 13.5897C115.849 14.1098 116.279 14.5314 116.811 14.5314Z" fill="white"/>
        <path d="M118.041 16.997C118.513 16.997 118.896 16.6222 118.896 16.1599C118.896 15.6976 118.513 15.3228 118.041 15.3228C117.568 15.3228 117.186 15.6976 117.186 16.1599C117.186 16.6222 117.568 16.997 118.041 16.997Z" fill="white"/>
        <path d="M109.374 16.3494C109.901 16.3494 110.329 15.9307 110.329 15.4142C110.329 14.8977 109.901 14.479 109.374 14.479C108.846 14.479 108.418 14.8977 108.418 15.4142C108.418 15.9307 108.846 16.3494 109.374 16.3494Z" fill="white"/>
        <path d="M111.045 14.0475C111.577 14.0475 112.008 13.626 112.008 13.1058C112.008 12.5857 111.577 12.1641 111.045 12.1641C110.514 12.1641 110.083 12.5857 110.083 13.1058C110.083 13.626 110.514 14.0475 111.045 14.0475Z" fill="white"/>
        <path d="M116.384 19.443C116.916 19.443 117.346 19.0214 117.346 18.5013C117.346 17.9812 116.916 17.5596 116.384 17.5596C115.853 17.5596 115.422 17.9812 115.422 18.5013C115.422 19.0214 115.853 19.443 116.384 19.443Z" fill="white"/>
        <path d="M118.495 11.9743C118.89 11.9743 119.21 11.661 119.21 11.2744C119.21 10.888 118.89 10.5747 118.495 10.5747C118.1 10.5747 117.78 10.888 117.78 11.2744C117.78 11.661 118.1 11.9743 118.495 11.9743Z" fill="white"/>
        <path d="M109.802 11.2286C110.197 11.2286 110.517 10.9154 110.517 10.5289C110.517 10.1424 110.197 9.8291 109.802 9.8291C109.407 9.8291 109.087 10.1424 109.087 10.5289C109.087 10.9154 109.407 11.2286 109.802 11.2286Z" fill="white"/>
        <path d="M117.687 4.83943C118.273 4.83943 118.749 4.37389 118.749 3.7996C118.749 3.22531 118.273 2.75977 117.687 2.75977C117.1 2.75977 116.624 3.22531 116.624 3.7996C116.624 4.37389 117.1 4.83943 117.687 4.83943Z" fill="white"/>
        <path d="M104.389 18.5733C104.854 18.5733 105.231 18.2044 105.231 17.7493C105.231 17.2942 104.854 16.9253 104.389 16.9253C103.924 16.9253 103.547 17.2942 103.547 17.7493C103.547 18.2044 103.924 18.5733 104.389 18.5733Z" fill="white"/>
        <path d="M107.71 18.5733C108.175 18.5733 108.552 18.2044 108.552 17.7493C108.552 17.2942 108.175 16.9253 107.71 16.9253C107.245 16.9253 106.868 17.2942 106.868 17.7493C106.868 18.2044 107.245 18.5733 107.71 18.5733Z" fill="white"/>
        <path d="M106.053 16.467C106.444 16.467 106.761 16.1566 106.761 15.7738C106.761 15.3909 106.444 15.0806 106.053 15.0806C105.662 15.0806 105.345 15.3909 105.345 15.7738C105.345 16.1566 105.662 16.467 106.053 16.467Z" fill="white"/>
        <path d="M103.166 20.7769C103.424 20.7769 103.634 20.5719 103.634 20.3191C103.634 20.0663 103.424 19.8613 103.166 19.8613C102.908 19.8613 102.698 20.0663 102.698 20.3191C102.698 20.5719 102.908 20.7769 103.166 20.7769Z" fill="white"/>
        <path d="M108.933 20.7769C109.191 20.7769 109.4 20.5719 109.4 20.3191C109.4 20.0663 109.191 19.8613 108.933 19.8613C108.674 19.8613 108.465 20.0663 108.465 20.3191C108.465 20.5719 108.674 20.7769 108.933 20.7769Z" fill="white"/>
        <path d="M106.053 20.8293C106.444 20.8293 106.761 20.5189 106.761 20.1361C106.761 19.7532 106.444 19.4429 106.053 19.4429C105.662 19.4429 105.345 19.7532 105.345 20.1361C105.345 20.5189 105.662 20.8293 106.053 20.8293Z" fill="white"/>
    </g>
    <defs>
        <clipPath id="clip0_4605_4488">
            <rect width="85" height="22" fill="white" transform="translate(92)"/>
        </clipPath>
    </defs>
</svg>
